<svg xmlns="http://www.w3.org/2000/svg" xmlns:xlink="http://www.w3.org/1999/xlink" width="2000" zoomAndPan="magnify" viewBox="0 0 1500 1499.999933" height="2000" preserveAspectRatio="xMidYMid meet" version="1.0"><defs><clipPath id="23a45fad77"><path d="M 137.144531 1323 L 1362.644531 1323 L 1362.644531 1362.644531 L 137.144531 1362.644531 Z M 137.144531 1323 " clip-rule="nonzero"/></clipPath><clipPath id="a3683038dd"><path d="M 572 137.144531 L 1252 137.144531 L 1252 481 L 572 481 Z M 572 137.144531 " clip-rule="nonzero"/></clipPath><clipPath id="b3b26f4bcf"><path d="M 137.144531 248 L 481 248 L 481 928 L 137.144531 928 Z M 137.144531 248 " clip-rule="nonzero"/></clipPath><clipPath id="baafb5cb7c"><path d="M 1019 512 L 1362.644531 512 L 1362.644531 1193 L 1019 1193 Z M 1019 512 " clip-rule="nonzero"/></clipPath><clipPath id="5430b2d916"><path d="M 137.144531 492 L 1362.644531 492 L 1362.644531 1245 L 137.144531 1245 Z M 137.144531 492 " clip-rule="nonzero"/></clipPath></defs><g clip-path="url(#23a45fad77)"><path fill="#d9d9d9" d="M 137.144531 1362.84375 L 1362.84375 1362.84375 L 1362.84375 1323.304688 L 137.144531 1323.304688 L 137.144531 1362.84375 " fill-opacity="1" fill-rule="nonzero"/></g><g clip-path="url(#a3683038dd)"><path fill="#d9d9d9" d="M 611.609375 193.519531 C 656.707031 182.320312 703.199219 176.683594 749.996094 176.683594 C 897.957031 176.683594 1038.503906 232.980469 1145.613281 335.226562 L 1159.589844 348.585938 L 1174.1875 333.988281 L 1197.277344 426.273438 L 1104.992188 403.183594 L 1131.714844 376.386719 L 1117.039062 362.484375 C 1017.5 268.195312 887.144531 216.222656 749.996094 216.222656 C 703.042969 216.222656 656.554688 222.324219 611.609375 234.292969 Z M 616.9375 273.832031 C 660.03125 261.863281 704.820312 255.761719 749.996094 255.761719 C 870.234375 255.761719 984.757812 298.851562 1074.800781 377.46875 L 1027.617188 424.652344 L 1251.640625 480.636719 L 1195.65625 256.609375 L 1158.742188 293.523438 C 1046.070312 192.515625 901.742188 137.144531 749.996094 137.144531 C 694.546875 137.144531 639.566406 144.558594 586.589844 159.15625 L 572.070312 163.171875 L 572.070312 276.457031 L 612.535156 274.605469 L 616.9375 273.832031 " fill-opacity="1" fill-rule="nonzero"/></g><g clip-path="url(#b3b26f4bcf)"><path fill="#d9d9d9" d="M 335.226562 354.375 L 348.585938 340.398438 L 333.988281 325.804688 L 426.273438 302.714844 L 403.183594 394.996094 L 376.386719 368.199219 L 362.484375 382.949219 C 268.117188 482.492188 216.222656 612.84375 216.222656 749.996094 C 216.222656 796.949219 222.324219 843.4375 234.371094 888.378906 L 193.519531 888.378906 C 182.320312 843.28125 176.683594 796.792969 176.683594 749.996094 C 176.683594 602.035156 232.980469 461.488281 335.226562 354.375 Z M 159.15625 913.402344 L 163.171875 927.917969 L 276.457031 927.917969 L 274.605469 887.453125 L 273.910156 883.050781 C 261.863281 839.960938 255.761719 795.171875 255.761719 749.996094 C 255.761719 629.835938 298.851562 515.234375 377.46875 425.191406 L 424.652344 472.375 L 480.636719 248.347656 L 256.609375 304.335938 L 293.523438 341.25 C 192.515625 453.917969 137.144531 598.25 137.144531 749.996094 C 137.144531 805.441406 144.558594 860.425781 159.15625 913.402344 " fill-opacity="1" fill-rule="nonzero"/></g><g clip-path="url(#baafb5cb7c)"><path fill="#d9d9d9" d="M 1306.472656 552.300781 C 1317.667969 597.402344 1323.304688 643.890625 1323.304688 690.6875 C 1323.304688 838.648438 1267.011719 979.195312 1164.765625 1086.304688 L 1151.40625 1100.285156 L 1166 1114.878906 L 1073.71875 1137.96875 L 1096.808594 1045.6875 L 1123.605469 1072.484375 L 1137.503906 1057.734375 C 1231.796875 958.191406 1283.765625 827.835938 1283.765625 690.6875 C 1283.765625 643.734375 1277.667969 597.246094 1265.695312 552.300781 Z M 1225.386719 553.230469 L 1226.160156 557.628906 C 1238.128906 600.722656 1244.230469 645.511719 1244.230469 690.6875 C 1244.230469 810.847656 1201.136719 925.449219 1122.523438 1015.492188 L 1075.339844 968.308594 L 1019.351562 1192.335938 L 1243.378906 1136.347656 L 1206.464844 1099.433594 C 1307.476562 986.765625 1362.84375 842.433594 1362.84375 690.6875 C 1362.84375 635.242188 1355.429688 580.257812 1340.835938 527.28125 L 1336.820312 512.761719 L 1223.53125 512.761719 L 1225.386719 553.230469 " fill-opacity="1" fill-rule="nonzero"/></g><path fill="#d9d9d9" d="M 552.300781 888.378906 L 552.300781 927.917969 L 591.839844 927.917969 L 591.839844 888.378906 L 552.300781 888.378906 " fill-opacity="1" fill-rule="nonzero"/><path fill="#d9d9d9" d="M 394.148438 927.917969 L 433.6875 927.917969 L 433.6875 888.378906 L 394.148438 888.378906 L 394.148438 927.917969 " fill-opacity="1" fill-rule="nonzero"/><path fill="#d9d9d9" d="M 473.222656 927.917969 L 512.761719 927.917969 L 512.761719 888.378906 L 473.222656 888.378906 L 473.222656 927.917969 " fill-opacity="1" fill-rule="nonzero"/><path fill="#d9d9d9" d="M 473.222656 1006.996094 L 512.761719 1006.996094 L 512.761719 967.457031 L 473.222656 967.457031 L 473.222656 1006.996094 " fill-opacity="1" fill-rule="nonzero"/><path fill="#d9d9d9" d="M 394.148438 1006.996094 L 433.6875 1006.996094 L 433.6875 967.457031 L 394.148438 967.457031 L 394.148438 1006.996094 " fill-opacity="1" fill-rule="nonzero"/><path fill="#d9d9d9" d="M 552.300781 1006.996094 L 591.839844 1006.996094 L 591.839844 967.457031 L 552.300781 967.457031 L 552.300781 1006.996094 " fill-opacity="1" fill-rule="nonzero"/><path fill="#d9d9d9" d="M 473.222656 1086.074219 L 512.761719 1086.074219 L 512.761719 1046.535156 L 473.222656 1046.535156 L 473.222656 1086.074219 " fill-opacity="1" fill-rule="nonzero"/><path fill="#d9d9d9" d="M 552.300781 1086.074219 L 591.839844 1086.074219 L 591.839844 1046.535156 L 552.300781 1046.535156 L 552.300781 1086.074219 " fill-opacity="1" fill-rule="nonzero"/><path fill="#d9d9d9" d="M 394.148438 1086.074219 L 433.6875 1086.074219 L 433.6875 1046.535156 L 394.148438 1046.535156 L 394.148438 1086.074219 " fill-opacity="1" fill-rule="nonzero"/><path fill="#d9d9d9" d="M 394.148438 1165.152344 L 433.6875 1165.152344 L 433.6875 1125.613281 L 394.148438 1125.613281 L 394.148438 1165.152344 " fill-opacity="1" fill-rule="nonzero"/><path fill="#d9d9d9" d="M 552.300781 1165.152344 L 591.839844 1165.152344 L 591.839844 1125.613281 L 552.300781 1125.613281 L 552.300781 1165.152344 " fill-opacity="1" fill-rule="nonzero"/><path fill="#d9d9d9" d="M 473.222656 1165.152344 L 512.761719 1165.152344 L 512.761719 1125.613281 L 473.222656 1125.613281 L 473.222656 1165.152344 " fill-opacity="1" fill-rule="nonzero"/><path fill="#d9d9d9" d="M 433.6875 769.765625 L 473.222656 769.765625 L 473.222656 730.226562 L 433.6875 730.226562 L 433.6875 769.765625 " fill-opacity="1" fill-rule="nonzero"/><path fill="#d9d9d9" d="M 591.839844 769.765625 L 631.378906 769.765625 L 631.378906 730.226562 L 591.839844 730.226562 L 591.839844 769.765625 " fill-opacity="1" fill-rule="nonzero"/><path fill="#d9d9d9" d="M 512.761719 769.765625 L 552.300781 769.765625 L 552.300781 730.226562 L 512.761719 730.226562 L 512.761719 769.765625 " fill-opacity="1" fill-rule="nonzero"/><path fill="#d9d9d9" d="M 710.457031 730.226562 L 670.917969 730.226562 L 670.917969 769.765625 L 710.457031 769.765625 L 710.457031 730.226562 " fill-opacity="1" fill-rule="nonzero"/><path fill="#d9d9d9" d="M 591.839844 690.6875 L 631.378906 690.6875 L 631.378906 651.148438 L 591.839844 651.148438 L 591.839844 690.6875 " fill-opacity="1" fill-rule="nonzero"/><path fill="#d9d9d9" d="M 710.457031 651.148438 L 670.917969 651.148438 L 670.917969 690.6875 L 710.457031 690.6875 L 710.457031 651.148438 " fill-opacity="1" fill-rule="nonzero"/><path fill="#d9d9d9" d="M 512.761719 690.6875 L 552.300781 690.6875 L 552.300781 651.148438 L 512.761719 651.148438 L 512.761719 690.6875 " fill-opacity="1" fill-rule="nonzero"/><path fill="#d9d9d9" d="M 433.6875 690.6875 L 473.222656 690.6875 L 473.222656 651.148438 L 433.6875 651.148438 L 433.6875 690.6875 " fill-opacity="1" fill-rule="nonzero"/><path fill="#d9d9d9" d="M 433.6875 611.609375 L 473.222656 611.609375 L 473.222656 572.070312 L 433.6875 572.070312 L 433.6875 611.609375 " fill-opacity="1" fill-rule="nonzero"/><path fill="#d9d9d9" d="M 591.839844 611.609375 L 631.378906 611.609375 L 631.378906 572.070312 L 591.839844 572.070312 L 591.839844 611.609375 " fill-opacity="1" fill-rule="nonzero"/><path fill="#d9d9d9" d="M 512.761719 611.609375 L 552.300781 611.609375 L 552.300781 572.070312 L 512.761719 572.070312 L 512.761719 611.609375 " fill-opacity="1" fill-rule="nonzero"/><path fill="#d9d9d9" d="M 710.457031 572.070312 L 670.917969 572.070312 L 670.917969 611.609375 L 710.457031 611.609375 L 710.457031 572.070312 " fill-opacity="1" fill-rule="nonzero"/><g clip-path="url(#5430b2d916)"><path fill="#d9d9d9" d="M 354.609375 848.84375 L 631.378906 848.84375 L 631.378906 1204.691406 L 354.609375 1204.691406 Z M 394.148438 532.53125 L 749.996094 532.53125 L 749.996094 1204.691406 L 670.917969 1204.691406 L 670.917969 809.304688 L 394.148438 809.304688 Z M 888.378906 690.6875 L 947.6875 690.6875 L 947.6875 771.925781 C 922.515625 746.210938 887.53125 730.226562 848.84375 730.226562 L 789.535156 730.226562 L 789.535156 648.988281 C 814.710938 674.703125 849.691406 690.6875 888.378906 690.6875 Z M 848.84375 572.070312 C 896.566406 572.070312 936.492188 606.050781 945.679688 651.148438 L 888.378906 651.148438 C 840.65625 651.148438 800.730469 617.171875 791.542969 572.070312 Z M 791.542969 769.765625 L 848.84375 769.765625 C 896.566406 769.765625 936.492188 803.742188 945.679688 848.84375 L 888.378906 848.84375 C 840.65625 848.84375 800.730469 814.863281 791.542969 769.765625 Z M 947.6875 1204.691406 L 789.535156 1204.691406 L 789.535156 846.679688 C 814.710938 872.394531 849.691406 888.378906 888.378906 888.378906 L 947.6875 888.378906 Z M 1086.074219 651.148438 L 1143.375 651.148438 C 1134.183594 696.246094 1094.261719 730.226562 1046.535156 730.226562 L 989.234375 730.226562 C 998.425781 685.128906 1038.351562 651.148438 1086.074219 651.148438 Z M 1086.074219 848.84375 L 1143.375 848.84375 C 1134.183594 893.941406 1094.261719 927.917969 1046.535156 927.917969 L 989.234375 927.917969 C 998.425781 882.820312 1038.351562 848.84375 1086.074219 848.84375 Z M 987.226562 967.457031 L 1046.535156 967.457031 C 1122.832031 967.457031 1184.921875 905.371094 1184.921875 829.074219 L 1184.921875 809.304688 L 1086.074219 809.304688 C 1047.386719 809.304688 1012.402344 825.289062 987.226562 851.003906 L 987.226562 769.765625 L 1046.535156 769.765625 C 1122.832031 769.765625 1184.921875 707.675781 1184.921875 631.378906 L 1184.921875 611.609375 L 1086.074219 611.609375 C 1046.84375 611.609375 1011.398438 628.136719 986.144531 654.46875 C 977.960938 585.972656 919.578125 532.53125 848.84375 532.53125 L 789.535156 532.53125 L 789.535156 492.992188 L 354.609375 492.992188 L 354.609375 809.304688 L 315.070312 809.304688 L 315.070312 1204.691406 L 137.144531 1204.691406 L 137.144531 1244.230469 L 1362.84375 1244.230469 L 1362.84375 1204.691406 L 987.226562 1204.691406 L 987.226562 967.457031 " fill-opacity="1" fill-rule="nonzero"/></g></svg>