<svg xmlns="http://www.w3.org/2000/svg" xmlns:xlink="http://www.w3.org/1999/xlink" width="2000" zoomAndPan="magnify" viewBox="0 0 1500 1499.999933" height="2000" preserveAspectRatio="xMidYMid meet" version="1.0"><defs><clipPath id="14cc4a9a27"><path d="M 685 1251 L 840 1251 L 840 1309.472656 L 685 1309.472656 Z M 685 1251 " clip-rule="nonzero"/></clipPath><clipPath id="f214787fe5"><path d="M 200.265625 483 L 364 483 L 364 560 L 200.265625 560 Z M 200.265625 483 " clip-rule="nonzero"/></clipPath><clipPath id="b6ffe74199"><path d="M 396 190.472656 L 474 190.472656 L 474 353 L 396 353 Z M 396 190.472656 " clip-rule="nonzero"/></clipPath></defs><path fill="#d9d9d9" d="M 1086.039062 759.304688 L 1085.117188 758.089844 C 1077.925781 748.554688 1067.886719 750.246094 1064.945312 751.015625 C 1062.042969 751.765625 1052.371094 755.109375 1050.699219 766.917969 L 1040.007812 841.710938 C 1039.851562 842.710938 1039.316406 843.558594 1039.027344 844.519531 C 1058.484375 818.660156 1074.367188 790.027344 1086.039062 759.304688 Z M 1086.039062 759.304688 " fill-opacity="1" fill-rule="nonzero"/><path fill="#d9d9d9" d="M 1020.972656 858.191406 C 1020.066406 858.191406 1019.144531 858.132812 1018.242188 858 L 904.050781 841.675781 C 893.53125 840.175781 886.226562 830.425781 887.726562 819.90625 L 898.414062 745.113281 C 900.105469 733.328125 891.761719 727.386719 889.1875 725.847656 C 886.570312 724.308594 877.398438 719.847656 867.882812 727.019531 L 807.410156 772.339844 C 798.933594 778.683594 786.855469 776.992188 780.511719 768.492188 L 711.292969 676.199219 C 704.929688 667.722656 706.640625 655.664062 715.136719 649.300781 L 775.570312 603.980469 C 785.105469 596.828125 783.394531 586.734375 782.664062 583.8125 C 781.914062 580.910156 778.550781 571.238281 766.746094 569.566406 L 691.949219 558.875 C 686.890625 558.144531 682.355469 555.453125 679.296875 551.355469 C 676.242188 547.28125 674.914062 542.144531 675.644531 537.109375 L 691.96875 422.914062 C 693.46875 412.398438 703.214844 405.148438 713.734375 406.589844 L 788.53125 417.28125 C 800.21875 418.878906 806.238281 410.628906 807.796875 408.054688 C 809.332031 405.457031 813.792969 396.265625 806.621094 386.710938 L 761.304688 326.277344 C 758.246094 322.203125 756.917969 317.066406 757.648438 312.03125 C 758.378906 306.972656 761.074219 302.4375 765.167969 299.378906 L 776.070312 291.207031 C 758.6875 290.535156 741.074219 290.667969 723.136719 292.648438 C 562.335938 310.414062 433.261719 441.835938 418.050781 602.886719 C 405.1875 739.019531 471.253906 860.863281 575.816406 927.988281 C 607.558594 948.40625 627.902344 982.535156 627.902344 1020.316406 L 627.902344 1098.015625 C 627.902344 1129.875 653.726562 1155.699219 685.585938 1155.699219 L 839.40625 1155.699219 C 871.265625 1155.699219 897.089844 1129.875 897.089844 1098.015625 L 897.089844 1021.914062 C 897.089844 983.226562 917.875 948.308594 950.347656 927.273438 C 980.730469 907.605469 1007.761719 883.28125 1030.585938 855.363281 C 1027.644531 857.074219 1024.375 858.191406 1020.972656 858.191406 Z M 781.722656 1098.015625 L 743.269531 1098.015625 L 743.269531 1040.332031 L 781.722656 1040.332031 Z M 743.269531 1001.878906 C 743.269531 951.039062 712.292969 906.085938 664.359375 887.28125 C 560.453125 846.597656 493.308594 748.171875 493.308594 636.554688 C 493.308594 543.609375 540.28125 458.46875 618.960938 408.785156 L 639.496094 441.296875 C 572.046875 483.90625 531.765625 556.875 531.765625 636.554688 C 531.765625 732.230469 589.3125 816.582031 678.394531 851.5 C 741.171875 876.070312 781.722656 935.101562 781.722656 1001.878906 Z M 743.269531 1001.878906 " fill-opacity="1" fill-rule="nonzero"/><g clip-path="url(#14cc4a9a27)"><path fill="#d9d9d9" d="M 724.039062 1309.519531 L 800.949219 1309.519531 C 822.160156 1309.519531 839.40625 1292.273438 839.40625 1271.066406 L 839.40625 1251.835938 L 685.585938 1251.835938 L 685.585938 1271.066406 C 685.585938 1292.273438 702.832031 1309.519531 724.039062 1309.519531 Z M 724.039062 1309.519531 " fill-opacity="1" fill-rule="nonzero"/></g><path fill="#d9d9d9" d="M 315.183594 867.285156 C 315.183594 808.527344 359.371094 759.976562 416.246094 752.898438 C 409.167969 731.808594 404.152344 709.984375 400.996094 687.699219 L 397.632812 703.714844 C 394.960938 716.347656 386.230469 726.75 374.25 731.519531 C 362.292969 736.269531 348.792969 734.789062 338.179688 727.460938 L 298.226562 699.929688 L 263.191406 734.960938 L 290.726562 774.894531 C 298.050781 785.492188 299.570312 798.988281 294.804688 810.988281 C 290.015625 822.964844 279.613281 831.695312 266.980469 834.347656 L 219.066406 844.421875 L 219.066406 890.128906 L 267 900.203125 C 279.613281 902.855469 290.015625 911.585938 294.804688 923.5625 C 299.570312 935.5625 298.050781 949.058594 290.707031 959.671875 L 263.191406 999.589844 L 298.226562 1034.621094 L 338.160156 1007.089844 C 348.8125 999.742188 362.292969 998.261719 374.269531 1003.03125 C 386.230469 1007.820312 394.960938 1018.203125 397.632812 1030.816406 L 407.707031 1078.789062 L 453.410156 1078.789062 L 463.488281 1030.855469 C 466.140625 1018.261719 474.851562 1007.859375 486.828125 1003.070312 C 498.828125 998.261719 512.324219 999.78125 522.9375 1007.128906 L 562.875 1034.660156 L 604.117188 993.417969 C 597.582031 973.765625 584.199219 956.289062 565.375 944.195312 C 553.835938 936.792969 542.972656 928.679688 532.496094 920.179688 C 512.996094 957.5 474.082031 982.652344 430.550781 982.652344 C 366.945312 982.652344 315.183594 930.910156 315.183594 867.285156 Z M 315.183594 867.285156 " fill-opacity="1" fill-rule="nonzero"/><path fill="#d9d9d9" d="M 685.585938 1174.925781 L 839.40625 1174.925781 L 839.40625 1213.382812 L 685.585938 1213.382812 Z M 685.585938 1174.925781 " fill-opacity="1" fill-rule="nonzero"/><path fill="#d9d9d9" d="M 1242.589844 521.015625 C 1219.054688 517.648438 1200.769531 501.25 1194.886719 478.214844 C 1188.984375 455.179688 1197.136719 432.03125 1216.152344 417.742188 L 1261.203125 383.941406 L 1215.054688 322.433594 L 1170.003906 356.214844 C 1150.988281 370.460938 1126.417969 371.828125 1105.996094 359.695312 C 1085.558594 347.582031 1074.925781 325.449219 1078.289062 301.917969 L 1086.25 246.175781 L 1010.128906 235.3125 L 1002.167969 291.054688 C 998.800781 314.585938 982.402344 332.871094 959.367188 338.757812 C 936.3125 344.679688 913.183594 336.507812 898.894531 317.492188 L 865.09375 272.441406 L 803.585938 318.585938 L 837.367188 363.636719 C 851.632812 382.652344 852.980469 407.1875 840.867188 427.644531 C 828.753906 448.085938 806.699219 458.679688 783.070312 455.351562 L 727.328125 447.390625 L 716.464844 523.515625 L 772.207031 531.476562 C 795.738281 534.839844 814.023438 551.222656 819.910156 574.277344 C 825.832031 597.289062 817.679688 620.460938 798.644531 634.746094 L 753.613281 668.546875 L 799.738281 730.058594 L 844.808594 696.273438 C 863.804688 681.988281 888.339844 680.660156 908.777344 692.773438 C 929.238281 704.886719 939.871094 727.019531 936.503906 750.574219 L 928.542969 806.3125 L 1004.667969 817.179688 L 1012.628906 761.4375 C 1015.992188 737.902344 1032.394531 719.617188 1055.429688 713.734375 C 1078.460938 707.753906 1101.613281 715.964844 1115.898438 735 L 1149.699219 780.03125 L 1211.210938 733.902344 L 1177.425781 688.832031 C 1163.160156 669.835938 1161.8125 645.300781 1173.945312 624.84375 C 1186.058594 604.40625 1207.980469 593.734375 1231.726562 597.136719 L 1287.464844 605.097656 L 1298.332031 528.976562 Z M 1007.378906 641.628906 C 943.753906 641.628906 892.011719 589.886719 892.011719 526.265625 C 892.011719 462.640625 943.753906 410.898438 1007.378906 410.898438 C 1071.003906 410.898438 1122.742188 462.640625 1122.742188 526.265625 C 1122.742188 589.886719 1071.003906 641.628906 1007.378906 641.628906 Z M 1007.378906 641.628906 " fill-opacity="1" fill-rule="nonzero"/><path fill="#d9d9d9" d="M 1127.820312 905.738281 L 1262.414062 905.738281 L 1262.414062 944.195312 L 1127.820312 944.195312 Z M 1127.820312 905.738281 " fill-opacity="1" fill-rule="nonzero"/><path fill="#d9d9d9" d="M 1096.289062 1035.863281 L 1120.902344 1006.320312 L 1236.277344 1102.441406 L 1211.660156 1131.988281 Z M 1096.289062 1035.863281 " fill-opacity="1" fill-rule="nonzero"/><path fill="#d9d9d9" d="M 1012.453125 1059.5625 L 1050.910156 1059.5625 L 1050.910156 1194.152344 L 1012.453125 1194.152344 Z M 1012.453125 1059.5625 " fill-opacity="1" fill-rule="nonzero"/><g clip-path="url(#f214787fe5)"><path fill="#d9d9d9" d="M 200.21875 521.765625 L 354.039062 483.316406 L 363.359375 520.605469 L 209.542969 559.054688 Z M 200.21875 521.765625 " fill-opacity="1" fill-rule="nonzero"/></g><path fill="#d9d9d9" d="M 232.175781 325.332031 L 254.515625 294.054688 L 389.105469 390.1875 L 366.765625 421.464844 Z M 232.175781 325.332031 " fill-opacity="1" fill-rule="nonzero"/><g clip-path="url(#b6ffe74199)"><path fill="#d9d9d9" d="M 396.90625 199.054688 L 434.164062 189.53125 L 473.488281 343.34375 L 436.234375 352.871094 Z M 396.90625 199.054688 " fill-opacity="1" fill-rule="nonzero"/></g></svg>