<?xml version="1.0" encoding="UTF-8" standalone="no" ?>
<!DOCTYPE svg PUBLIC "-//W3C//DTD SVG 1.1//EN" "http://www.w3.org/Graphics/SVG/1.1/DTD/svg11.dtd">
<svg xmlns="http://www.w3.org/2000/svg" xmlns:xlink="http://www.w3.org/1999/xlink" version="1.1" width="1080" height="1080" viewBox="0 0 1080 1080" xml:space="preserve">
<desc>Created with Fabric.js 5.2.4</desc>
<defs>
</defs>
<g transform="matrix(1 0 0 1 540 540)" id="e6ea1391-08b2-4516-9b02-ab91ae9eb56a"  >
<rect style="stroke: none; stroke-width: 1; stroke-dasharray: none; stroke-linecap: butt; stroke-dashoffset: 0; stroke-linejoin: miter; stroke-miterlimit: 4; fill: rgb(255,255,255); fill-rule: nonzero; opacity: 1; visibility: hidden;" vector-effect="non-scaling-stroke"  x="-540" y="-540" rx="0" ry="0" width="1080" height="1080" />
</g>
<g transform="matrix(1 0 0 1 540 540)" id="2da42d74-d5d9-4667-bada-f06e7d745797"  >
</g>
<g transform="matrix(2.33 0 0 2.33 608.06 547.92)" clip-path="url(#CLIPPATH_4)"  >
<clipPath id="CLIPPATH_4" >
	<path transform="matrix(1 0 0 1 0.19 0.36) translate(-702.4, -236.44)" id="4280000000" d="M 667.808594 195.121094 L 737 195.121094 L 737 277.75 L 667.808594 277.75 Z M 667.808594 195.121094" stroke-linecap="round" />
</clipPath>
<path style="stroke: none; stroke-width: 1; stroke-dasharray: none; stroke-linecap: butt; stroke-dashoffset: 0; stroke-linejoin: miter; stroke-miterlimit: 4; fill: rgb(255,255,255); fill-rule: nonzero; opacity: 1;" vector-effect="non-scaling-stroke"  transform=" translate(-702.21, -236.08)" d="M 721.125 276.527344 L 720.878906 276.679688 C 720.554688 276.863281 720.207031 276.972656 719.832031 276.992188 L 685.808594 277.003906 C 685.316406 277.003906 684.714844 277.066406 684.242188 276.929688 L 684.191406 276.914062 C 682.695312 276.5 682.476562 275.296875 682.289062 273.957031 L 681.085938 265.074219 C 680.964844 264.152344 681.28125 264.445312 680.546875 264.179688 C 677.96875 263.257812 678.132812 260.179688 677.820312 257.945312 L 673.605469 227.738281 C 673.359375 226.039062 673.140625 225.0625 674.671875 223.929688 L 674.101562 219.65625 C 673.882812 217.867188 674.375 218.777344 672.277344 218.472656 C 669.859375 218.121094 668.003906 215.9375 667.917969 213.515625 C 667.804688 210.515625 670.503906 206.558594 673.605469 206.050781 C 674.429688 205.914062 674.242188 206.09375 674.523438 205.371094 L 676.035156 201.980469 C 677.507812 198.554688 678.71875 195.28125 683.046875 195.132812 L 720.808594 195.136719 C 725.335938 195.148438 726.496094 197.449219 728.132812 201.375 L 730.105469 205.578125 C 730.292969 205.980469 730.214844 205.871094 730.660156 205.929688 C 733.328125 206.285156 735.300781 208.851562 736.160156 211.234375 C 737.277344 214.328125 735.675781 217.882812 732.320312 218.449219 C 731.730469 218.550781 731.101562 218.535156 730.503906 218.550781 L 729.703125 223.894531 L 729.832031 223.96875 C 730.332031 224.328125 730.902344 224.925781 731.003906 225.550781 L 731.011719 225.621094 C 731.066406 225.980469 731.015625 226.363281 730.984375 226.722656 L 726.277344 260.578125 C 726.101562 262.175781 725.730469 263.488281 724.011719 264.082031 C 723.902344 264.121094 723.457031 264.148438 723.445312 264.261719 L 722.226562 273.8125 C 722.09375 274.9375 722.042969 275.761719 721.125 276.527344 Z M 682.929688 197.742188 C 680.488281 198.007812 679.980469 199.617188 679.085938 201.648438 L 677.707031 204.738281 C 677.558594 205.066406 677.410156 205.640625 677.191406 205.90625 L 721.585938 205.910156 L 725.46875 205.914062 C 726.058594 205.914062 726.714844 205.976562 727.296875 205.902344 L 727.25 205.84375 C 727.148438 205.703125 727.121094 205.507812 727.058594 205.347656 L 725.507812 201.894531 C 724.597656 199.800781 723.859375 197.820312 721.25 197.742188 Z M 678.730469 208.5 L 676.113281 208.507812 C 674.164062 208.511719 673.175781 208.484375 671.867188 210.164062 C 670.355469 212.09375 669.628906 214.890625 672.457031 215.867188 C 673.007812 216.058594 673.804688 215.953125 674.386719 215.949219 L 725.707031 215.9375 L 729.464844 215.941406 C 731.164062 215.941406 733.5 216.109375 733.878906 213.765625 C 734.164062 211.996094 732.460938 209.332031 730.804688 208.632812 L 730.746094 208.609375 C 730.597656 208.546875 730.449219 208.527344 730.289062 208.519531 Z M 678.210938 218.484375 L 677.183594 218.492188 C 676.996094 218.492188 676.789062 218.476562 676.609375 218.515625 L 676.617188 218.554688 C 676.6875 218.878906 676.707031 219.21875 676.757812 219.550781 L 677.261719 222.953125 C 677.300781 223.191406 677.3125 223.6875 677.441406 223.878906 L 726.289062 223.867188 L 727.078125 223.808594 L 727.730469 219.726562 C 727.804688 219.324219 727.828125 218.859375 727.960938 218.480469 Z M 682.472656 226.449219 L 676.144531 226.464844 L 680.867188 260.816406 C 681.050781 262 681.324219 261.671875 682.539062 261.667969 L 722.132812 261.664062 L 723.414062 261.628906 C 723.695312 260.570312 723.757812 259.386719 723.898438 258.296875 L 728.265625 227.222656 C 728.292969 226.976562 728.292969 226.691406 728.363281 226.457031 Z M 687.65625 264.285156 L 683.644531 264.285156 L 685.027344 274.402344 L 716.871094 274.398438 L 719.511719 274.398438 L 720.820312 264.289062 Z M 687.65625 264.285156" stroke-linecap="round" />
</g>
<g transform="matrix(2.33 0 0 2.33 608.07 565.52)"  >
<path style="stroke: none; stroke-width: 1; stroke-dasharray: none; stroke-linecap: butt; stroke-dashoffset: 0; stroke-linejoin: miter; stroke-miterlimit: 4; fill: rgb(255,255,255); fill-rule: nonzero; opacity: 1;" vector-effect="non-scaling-stroke"  transform=" translate(-702.22, -243.62)" d="M 698.261719 257.804688 L 697.988281 257.792969 C 693.601562 257.808594 690.328125 255.246094 689.089844 251.132812 C 686.226562 241.621094 696.589844 229.425781 706.289062 229.433594 C 706.8125 229.429688 707.347656 229.417969 707.871094 229.46875 C 712.539062 229.933594 715.761719 234.152344 715.828125 238.699219 C 715.960938 247.6875 707.558594 257.671875 698.261719 257.804688 Z M 706.1875 231.929688 C 698.421875 232.367188 690.890625 241.007812 691.320312 248.726562 C 691.378906 249.734375 691.644531 251.007812 692.203125 251.863281 C 693.027344 251.683594 693.792969 251.40625 694.566406 251.074219 C 697.609375 249.695312 699.195312 247.664062 700.332031 244.644531 L 701.925781 240.253906 C 703.492188 236.496094 706.0625 233.730469 710.097656 232.917969 C 708.941406 232.199219 707.542969 231.859375 706.1875 231.929688 Z M 711.921875 235.199219 C 709.6875 235.367188 707.664062 236.433594 706.207031 238.136719 C 703.984375 240.738281 703.699219 244.253906 702.210938 247.230469 C 700.492188 250.664062 697.679688 252.886719 694.105469 254.082031 C 694.660156 254.414062 695.21875 254.699219 695.824219 254.914062 C 702.082031 256.558594 708.171875 251.394531 711.070312 246.289062 C 712.621094 243.5625 713.828125 239.910156 712.910156 236.792969 C 712.757812 236.269531 712.542969 235.566406 712.089844 235.214844 Z M 711.921875 235.199219" stroke-linecap="round" />
</g>
<g transform="matrix(2.33 0 0 2.33 480.84 475.5)" clip-path="url(#CLIPPATH_5)"  >
<clipPath id="CLIPPATH_5" >
	<path transform="matrix(1 0 0 1 0.27 0.1) translate(-647.98, -205.15)" id="ac3d14dc0a" d="M 630.953125 188.296875 L 665 188.296875 L 665 222 L 630.953125 222 Z M 630.953125 188.296875" stroke-linecap="round" />
</clipPath>
<path style="stroke: none; stroke-width: 1; stroke-dasharray: none; stroke-linecap: butt; stroke-dashoffset: 0; stroke-linejoin: miter; stroke-miterlimit: 4; fill: rgb(255,255,255); fill-rule: nonzero; opacity: 1;" vector-effect="non-scaling-stroke"  transform=" translate(-647.7, -205.05)" d="M 662.796875 201.152344 L 660.558594 200.589844 L 659.945312 199.105469 L 661.132812 197.125 C 661.257812 196.917969 661.347656 196.695312 661.398438 196.457031 C 661.449219 196.21875 661.457031 195.976562 661.429688 195.734375 C 661.398438 195.492188 661.332031 195.265625 661.222656 195.042969 C 661.117188 194.824219 660.976562 194.628906 660.804688 194.457031 L 658.292969 191.945312 C 658.121094 191.773438 657.925781 191.632812 657.707031 191.527344 C 657.488281 191.421875 657.257812 191.351562 657.015625 191.320312 C 656.773438 191.292969 656.535156 191.304688 656.296875 191.355469 C 656.058594 191.40625 655.832031 191.492188 655.625 191.617188 L 653.644531 192.804688 L 652.160156 192.191406 L 651.601562 189.949219 C 651.542969 189.714844 651.445312 189.492188 651.3125 189.289062 C 651.179688 189.085938 651.015625 188.90625 650.824219 188.757812 C 650.632812 188.609375 650.421875 188.492188 650.191406 188.414062 C 649.960938 188.335938 649.722656 188.296875 649.480469 188.296875 L 645.929688 188.296875 C 645.683594 188.296875 645.449219 188.335938 645.21875 188.414062 C 644.988281 188.492188 644.773438 188.609375 644.582031 188.757812 C 644.390625 188.910156 644.226562 189.085938 644.09375 189.289062 C 643.960938 189.496094 643.867188 189.714844 643.808594 189.953125 L 643.25 192.191406 L 641.761719 192.804688 L 639.785156 191.617188 C 639.574219 191.492188 639.351562 191.40625 639.113281 191.355469 C 638.875 191.304688 638.636719 191.292969 638.394531 191.324219 C 638.152344 191.351562 637.921875 191.421875 637.703125 191.527344 C 637.484375 191.636719 637.289062 191.773438 637.113281 191.945312 L 634.601562 194.457031 C 634.429688 194.628906 634.289062 194.824219 634.183594 195.046875 C 634.078125 195.265625 634.007812 195.496094 633.980469 195.734375 C 633.949219 195.976562 633.960938 196.21875 634.011719 196.457031 C 634.058594 196.695312 634.148438 196.917969 634.273438 197.128906 L 635.460938 199.105469 L 634.847656 200.59375 L 632.609375 201.152344 C 632.371094 201.210938 632.152344 201.304688 631.945312 201.4375 C 631.742188 201.570312 631.566406 201.734375 631.414062 201.925781 C 631.265625 202.117188 631.152344 202.328125 631.070312 202.558594 C 630.992188 202.789062 630.953125 203.027344 630.953125 203.269531 L 630.953125 206.824219 C 630.953125 207.066406 630.992188 207.304688 631.070312 207.535156 C 631.152344 207.765625 631.265625 207.976562 631.414062 208.167969 C 631.566406 208.359375 631.742188 208.523438 631.945312 208.65625 C 632.152344 208.789062 632.371094 208.882812 632.609375 208.941406 L 634.847656 209.5 L 635.460938 210.988281 L 634.273438 212.96875 C 634.148438 213.175781 634.058594 213.398438 634.007812 213.636719 C 633.960938 213.875 633.949219 214.117188 633.976562 214.359375 C 634.007812 214.601562 634.078125 214.828125 634.183594 215.050781 C 634.289062 215.269531 634.429688 215.464844 634.601562 215.636719 L 637.113281 218.148438 C 637.285156 218.320312 637.480469 218.460938 637.699219 218.566406 C 637.917969 218.675781 638.148438 218.742188 638.390625 218.773438 C 638.632812 218.800781 638.875 218.792969 639.113281 218.742188 C 639.351562 218.691406 639.574219 218.601562 639.78125 218.476562 L 641.761719 217.289062 L 643.25 217.902344 L 643.808594 220.144531 C 643.867188 220.378906 643.960938 220.601562 644.09375 220.804688 C 644.226562 221.007812 644.390625 221.1875 644.582031 221.335938 C 644.773438 221.484375 644.988281 221.601562 645.21875 221.679688 C 645.449219 221.757812 645.683594 221.796875 645.929688 221.796875 L 649.480469 221.796875 C 649.722656 221.796875 649.960938 221.757812 650.191406 221.679688 C 650.421875 221.597656 650.632812 221.484375 650.824219 221.335938 C 651.015625 221.183594 651.179688 221.007812 651.3125 220.804688 C 651.445312 220.597656 651.539062 220.378906 651.601562 220.140625 L 652.160156 217.902344 L 653.644531 217.289062 L 655.621094 218.476562 C 655.832031 218.601562 656.054688 218.691406 656.292969 218.742188 C 656.53125 218.792969 656.773438 218.800781 657.015625 218.773438 C 657.257812 218.742188 657.488281 218.675781 657.707031 218.566406 C 657.925781 218.460938 658.121094 218.320312 658.292969 218.148438 L 660.804688 215.636719 C 660.976562 215.464844 661.117188 215.269531 661.222656 215.050781 C 661.332031 214.832031 661.398438 214.601562 661.429688 214.359375 C 661.457031 214.117188 661.449219 213.875 661.398438 213.636719 C 661.347656 213.398438 661.257812 213.175781 661.132812 212.964844 L 659.945312 210.988281 L 660.558594 209.5 L 662.800781 208.941406 C 663.035156 208.882812 663.257812 208.789062 663.460938 208.65625 C 663.664062 208.523438 663.84375 208.359375 663.992188 208.167969 C 664.140625 207.976562 664.257812 207.765625 664.335938 207.535156 C 664.414062 207.304688 664.453125 207.066406 664.453125 206.824219 L 664.453125 203.269531 C 664.453125 203.027344 664.414062 202.789062 664.335938 202.558594 C 664.257812 202.328125 664.140625 202.117188 663.992188 201.925781 C 663.839844 201.734375 663.664062 201.570312 663.460938 201.4375 C 663.253906 201.304688 663.035156 201.210938 662.796875 201.152344 Z M 662.996094 206.824219 C 662.996094 206.988281 662.945312 207.140625 662.84375 207.269531 C 662.742188 207.402344 662.609375 207.488281 662.445312 207.53125 L 659.851562 208.179688 C 659.613281 208.238281 659.449219 208.378906 659.355469 208.605469 L 658.457031 210.769531 C 658.367188 210.996094 658.382812 211.210938 658.507812 211.421875 L 659.882812 213.714844 C 659.96875 213.859375 660.003906 214.011719 659.984375 214.179688 C 659.960938 214.34375 659.894531 214.488281 659.773438 214.605469 L 657.261719 217.117188 C 657.144531 217.234375 657.003906 217.304688 656.835938 217.324219 C 656.671875 217.347656 656.515625 217.3125 656.371094 217.226562 L 654.078125 215.851562 C 653.867188 215.722656 653.652344 215.707031 653.425781 215.800781 L 651.261719 216.699219 C 651.035156 216.792969 650.894531 216.957031 650.835938 217.195312 L 650.1875 219.789062 C 650.144531 219.953125 650.058594 220.085938 649.925781 220.1875 C 649.796875 220.289062 649.644531 220.339844 649.480469 220.339844 L 645.929688 220.339844 C 645.761719 220.339844 645.613281 220.289062 645.480469 220.1875 C 645.347656 220.085938 645.261719 219.953125 645.222656 219.789062 L 644.574219 217.195312 C 644.511719 216.957031 644.371094 216.792969 644.144531 216.699219 L 641.984375 215.800781 C 641.894531 215.765625 641.800781 215.746094 641.703125 215.746094 C 641.570312 215.746094 641.445312 215.78125 641.328125 215.851562 L 639.035156 217.226562 C 638.890625 217.3125 638.738281 217.347656 638.570312 217.324219 C 638.40625 217.304688 638.261719 217.234375 638.144531 217.117188 L 635.632812 214.605469 C 635.515625 214.488281 635.445312 214.34375 635.425781 214.179688 C 635.40625 214.015625 635.4375 213.859375 635.523438 213.714844 L 636.898438 211.421875 C 637.027344 211.210938 637.042969 210.996094 636.949219 210.769531 L 636.050781 208.605469 C 635.957031 208.378906 635.792969 208.238281 635.554688 208.179688 L 632.960938 207.53125 C 632.800781 207.488281 632.667969 207.402344 632.5625 207.269531 C 632.460938 207.140625 632.410156 206.988281 632.410156 206.824219 L 632.410156 203.269531 C 632.410156 203.105469 632.460938 202.953125 632.5625 202.824219 C 632.667969 202.691406 632.800781 202.605469 632.960938 202.5625 L 635.554688 201.914062 C 635.792969 201.855469 635.957031 201.714844 636.050781 201.488281 L 636.949219 199.324219 C 637.042969 199.097656 637.027344 198.882812 636.898438 198.671875 L 635.523438 196.378906 C 635.4375 196.234375 635.402344 196.082031 635.425781 195.914062 C 635.445312 195.75 635.515625 195.605469 635.632812 195.488281 L 638.144531 192.976562 C 638.261719 192.859375 638.40625 192.789062 638.570312 192.769531 C 638.738281 192.746094 638.890625 192.78125 639.035156 192.867188 L 641.328125 194.242188 C 641.539062 194.371094 641.757812 194.386719 641.984375 194.292969 L 644.144531 193.394531 C 644.371094 193.300781 644.511719 193.136719 644.574219 192.898438 L 645.222656 190.304688 C 645.261719 190.140625 645.347656 190.007812 645.480469 189.90625 C 645.613281 189.804688 645.761719 189.753906 645.929688 189.753906 L 649.480469 189.753906 C 649.644531 189.753906 649.796875 189.804688 649.925781 189.90625 C 650.058594 190.007812 650.144531 190.140625 650.1875 190.304688 L 650.835938 192.898438 C 650.894531 193.136719 651.035156 193.300781 651.261719 193.394531 L 653.425781 194.292969 C 653.652344 194.386719 653.867188 194.371094 654.078125 194.242188 L 656.375 192.867188 C 656.515625 192.78125 656.671875 192.75 656.835938 192.769531 C 657.003906 192.789062 657.144531 192.859375 657.261719 192.976562 L 659.773438 195.488281 C 659.890625 195.605469 659.960938 195.75 659.980469 195.914062 C 660.003906 196.078125 659.96875 196.234375 659.882812 196.378906 L 658.507812 198.671875 C 658.382812 198.882812 658.367188 199.097656 658.457031 199.324219 L 659.355469 201.488281 C 659.449219 201.714844 659.613281 201.855469 659.851562 201.914062 L 662.445312 202.5625 C 662.609375 202.605469 662.742188 202.691406 662.84375 202.824219 C 662.945312 202.953125 662.996094 203.105469 662.996094 203.269531 Z M 662.996094 206.824219" stroke-linecap="round" />
</g>
<g transform="matrix(2.33 0 0 2.33 480.84 475.5)"  >
<path style="stroke: none; stroke-width: 1; stroke-dasharray: none; stroke-linecap: butt; stroke-dashoffset: 0; stroke-linejoin: miter; stroke-miterlimit: 4; fill: rgb(255,255,255); fill-rule: nonzero; opacity: 1;" vector-effect="non-scaling-stroke"  transform=" translate(-647.7, -205.05)" d="M 647.703125 197.035156 C 647.175781 197.035156 646.65625 197.085938 646.140625 197.191406 C 645.625 197.292969 645.125 197.445312 644.636719 197.644531 C 644.152344 197.847656 643.691406 198.09375 643.253906 198.386719 C 642.816406 198.679688 642.410156 199.011719 642.039062 199.382812 C 641.667969 199.753906 641.335938 200.160156 641.042969 200.597656 C 640.75 201.035156 640.503906 201.496094 640.300781 201.980469 C 640.101562 202.46875 639.949219 202.96875 639.847656 203.484375 C 639.742188 204 639.691406 204.519531 639.691406 205.046875 C 639.691406 205.574219 639.742188 206.09375 639.847656 206.609375 C 639.949219 207.125 640.101562 207.625 640.300781 208.113281 C 640.503906 208.597656 640.75 209.058594 641.042969 209.496094 C 641.335938 209.933594 641.667969 210.339844 642.039062 210.710938 C 642.410156 211.082031 642.816406 211.414062 643.253906 211.707031 C 643.691406 212 644.152344 212.246094 644.636719 212.449219 C 645.125 212.648438 645.625 212.800781 646.140625 212.902344 C 646.65625 213.007812 647.175781 213.058594 647.703125 213.058594 C 648.230469 213.058594 648.75 213.007812 649.265625 212.902344 C 649.78125 212.800781 650.285156 212.648438 650.769531 212.449219 C 651.253906 212.246094 651.71875 212 652.15625 211.707031 C 652.589844 211.414062 652.996094 211.082031 653.367188 210.710938 C 653.742188 210.339844 654.074219 209.933594 654.363281 209.496094 C 654.65625 209.058594 654.902344 208.597656 655.105469 208.113281 C 655.304688 207.625 655.457031 207.125 655.5625 206.609375 C 655.664062 206.09375 655.714844 205.574219 655.714844 205.046875 C 655.714844 204.519531 655.664062 204 655.558594 203.484375 C 655.457031 202.96875 655.304688 202.46875 655.101562 201.984375 C 654.902344 201.496094 654.652344 201.035156 654.363281 200.597656 C 654.070312 200.160156 653.738281 199.757812 653.367188 199.386719 C 652.992188 199.011719 652.589844 198.679688 652.152344 198.390625 C 651.714844 198.097656 651.253906 197.851562 650.769531 197.648438 C 650.28125 197.445312 649.78125 197.292969 649.265625 197.191406 C 648.75 197.089844 648.230469 197.035156 647.703125 197.035156 Z M 647.703125 211.601562 C 647.273438 211.601562 646.847656 211.558594 646.425781 211.476562 C 646.003906 211.390625 645.59375 211.265625 645.195312 211.101562 C 644.796875 210.9375 644.421875 210.734375 644.0625 210.496094 C 643.703125 210.257812 643.375 209.984375 643.070312 209.683594 C 642.765625 209.378906 642.492188 209.046875 642.253906 208.6875 C 642.015625 208.332031 641.8125 207.953125 641.648438 207.554688 C 641.484375 207.15625 641.359375 206.746094 641.273438 206.324219 C 641.191406 205.902344 641.148438 205.476562 641.148438 205.046875 C 641.148438 204.617188 641.191406 204.191406 641.273438 203.769531 C 641.359375 203.347656 641.484375 202.9375 641.648438 202.539062 C 641.8125 202.140625 642.015625 201.761719 642.253906 201.40625 C 642.492188 201.046875 642.765625 200.714844 643.070312 200.410156 C 643.375 200.109375 643.703125 199.835938 644.0625 199.597656 C 644.421875 199.359375 644.796875 199.15625 645.195312 198.992188 C 645.59375 198.828125 646.003906 198.703125 646.425781 198.617188 C 646.847656 198.535156 647.273438 198.492188 647.703125 198.492188 C 648.132812 198.492188 648.558594 198.535156 648.980469 198.617188 C 649.40625 198.703125 649.8125 198.828125 650.210938 198.992188 C 650.609375 199.15625 650.988281 199.359375 651.34375 199.597656 C 651.703125 199.835938 652.035156 200.109375 652.339844 200.410156 C 652.644531 200.714844 652.914062 201.046875 653.152344 201.40625 C 653.394531 201.761719 653.59375 202.140625 653.757812 202.539062 C 653.925781 202.9375 654.046875 203.347656 654.132812 203.769531 C 654.214844 204.191406 654.257812 204.617188 654.257812 205.046875 C 654.257812 205.476562 654.214844 205.902344 654.132812 206.324219 C 654.046875 206.746094 653.921875 207.15625 653.757812 207.554688 C 653.59375 207.953125 653.390625 208.328125 653.152344 208.6875 C 652.914062 209.042969 652.640625 209.375 652.335938 209.679688 C 652.03125 209.984375 651.699219 210.253906 651.34375 210.496094 C 650.984375 210.734375 650.609375 210.9375 650.210938 211.101562 C 649.8125 211.265625 649.402344 211.390625 648.980469 211.472656 C 648.558594 211.558594 648.132812 211.601562 647.703125 211.601562 Z M 647.703125 211.601562" stroke-linecap="round" />
</g>
<g transform="matrix(2.33 0 0 2.33 527.76 410.49)" clip-path="url(#CLIPPATH_6)"  >
<clipPath id="CLIPPATH_6" >
	<path transform="matrix(1 0 0 1 0.12 0.29) translate(-667.92, -177.48)" id="5" d="M 653.847656 163.234375 L 682 163.234375 L 682 191.726562 L 653.847656 191.726562 Z M 653.847656 163.234375" stroke-linecap="round" />
</clipPath>
<path style="stroke: none; stroke-width: 1; stroke-dasharray: none; stroke-linecap: butt; stroke-dashoffset: 0; stroke-linejoin: miter; stroke-miterlimit: 4; fill: rgb(255,255,255); fill-rule: nonzero; opacity: 1;" vector-effect="non-scaling-stroke"  transform=" translate(-667.8, -177.19)" d="M 680.382812 173.945312 L 678.515625 173.476562 L 678.003906 172.242188 L 678.996094 170.589844 C 679.210938 170.234375 679.292969 169.847656 679.242188 169.433594 C 679.191406 169.015625 679.015625 168.664062 678.722656 168.367188 L 676.628906 166.273438 C 676.332031 165.980469 675.980469 165.804688 675.5625 165.753906 C 675.148438 165.703125 674.761719 165.785156 674.40625 166 L 672.753906 166.992188 L 671.519531 166.476562 L 671.050781 164.613281 C 670.949219 164.207031 670.734375 163.875 670.40625 163.617188 C 670.074219 163.359375 669.703125 163.234375 669.285156 163.234375 L 666.324219 163.234375 C 665.90625 163.234375 665.535156 163.359375 665.207031 163.617188 C 664.875 163.875 664.660156 164.207031 664.558594 164.613281 L 664.09375 166.476562 L 662.855469 166.992188 L 661.207031 166 C 660.847656 165.785156 660.460938 165.703125 660.046875 165.753906 C 659.632812 165.804688 659.277344 165.980469 658.984375 166.273438 L 656.890625 168.367188 C 656.59375 168.664062 656.421875 169.015625 656.371094 169.433594 C 656.316406 169.847656 656.398438 170.234375 656.617188 170.589844 L 657.605469 172.242188 L 657.09375 173.476562 L 655.226562 173.945312 C 654.820312 174.046875 654.492188 174.261719 654.234375 174.589844 C 653.976562 174.917969 653.847656 175.292969 653.847656 175.710938 L 653.847656 178.667969 C 653.847656 179.085938 653.976562 179.460938 654.234375 179.789062 C 654.492188 180.121094 654.820312 180.335938 655.226562 180.4375 L 657.09375 180.902344 L 657.605469 182.140625 L 656.617188 183.789062 C 656.398438 184.148438 656.316406 184.535156 656.367188 184.949219 C 656.421875 185.363281 656.59375 185.71875 656.890625 186.011719 L 658.980469 188.105469 C 659.277344 188.402344 659.632812 188.574219 660.046875 188.625 C 660.460938 188.675781 660.847656 188.59375 661.207031 188.378906 L 662.855469 187.390625 L 664.09375 187.902344 L 664.558594 189.769531 C 664.660156 190.175781 664.875 190.503906 665.203125 190.761719 C 665.535156 191.019531 665.910156 191.148438 666.324219 191.148438 L 669.285156 191.148438 C 669.703125 191.148438 670.074219 191.019531 670.40625 190.761719 C 670.734375 190.503906 670.949219 190.171875 671.050781 189.769531 L 671.515625 187.902344 L 672.753906 187.390625 L 674.402344 188.378906 C 674.761719 188.59375 675.148438 188.679688 675.5625 188.625 C 675.976562 188.574219 676.332031 188.402344 676.628906 188.105469 L 678.722656 186.011719 C 679.015625 185.71875 679.191406 185.363281 679.242188 184.949219 C 679.292969 184.535156 679.210938 184.148438 678.996094 183.789062 L 678.003906 182.140625 L 678.515625 180.902344 L 680.382812 180.4375 C 680.789062 180.335938 681.121094 180.121094 681.375 179.789062 C 681.632812 179.460938 681.761719 179.085938 681.761719 178.667969 L 681.761719 175.710938 C 681.761719 175.292969 681.632812 174.917969 681.375 174.589844 C 681.121094 174.261719 680.789062 174.046875 680.382812 173.945312 Z M 680.546875 178.667969 C 680.546875 178.808594 680.503906 178.933594 680.421875 179.042969 C 680.335938 179.152344 680.222656 179.226562 680.089844 179.257812 L 677.925781 179.800781 C 677.730469 179.847656 677.589844 179.96875 677.511719 180.15625 L 676.765625 181.957031 C 676.6875 182.144531 676.703125 182.328125 676.808594 182.503906 L 677.953125 184.414062 C 678.027344 184.53125 678.054688 184.660156 678.035156 184.800781 C 678.019531 184.9375 677.960938 185.054688 677.863281 185.15625 L 675.769531 187.246094 C 675.671875 187.347656 675.554688 187.402344 675.414062 187.421875 C 675.277344 187.4375 675.148438 187.410156 675.027344 187.339844 L 673.117188 186.191406 C 672.941406 186.085938 672.761719 186.074219 672.570312 186.152344 L 670.769531 186.898438 C 670.582031 186.976562 670.464844 187.113281 670.414062 187.3125 L 669.875 189.472656 C 669.839844 189.609375 669.769531 189.71875 669.65625 189.804688 C 669.546875 189.890625 669.421875 189.933594 669.285156 189.933594 L 666.324219 189.933594 C 666.1875 189.933594 666.0625 189.890625 665.953125 189.804688 C 665.84375 189.71875 665.769531 189.609375 665.738281 189.472656 L 665.195312 187.3125 C 665.148438 187.113281 665.027344 186.976562 664.839844 186.898438 L 663.039062 186.152344 C 662.964844 186.121094 662.886719 186.105469 662.804688 186.105469 C 662.695312 186.105469 662.589844 186.132812 662.496094 186.191406 L 660.582031 187.339844 C 660.460938 187.410156 660.332031 187.4375 660.195312 187.421875 C 660.058594 187.402344 659.9375 187.347656 659.839844 187.246094 L 657.746094 185.15625 C 657.648438 185.054688 657.589844 184.9375 657.574219 184.800781 C 657.558594 184.660156 657.585938 184.53125 657.65625 184.414062 L 658.804688 182.503906 C 658.90625 182.328125 658.921875 182.144531 658.84375 181.957031 L 658.097656 180.15625 C 658.019531 179.96875 657.882812 179.847656 657.683594 179.800781 L 655.519531 179.257812 C 655.386719 179.226562 655.277344 179.152344 655.191406 179.042969 C 655.105469 178.933594 655.0625 178.808594 655.0625 178.667969 L 655.0625 175.710938 C 655.0625 175.570312 655.105469 175.445312 655.191406 175.335938 C 655.277344 175.226562 655.386719 175.15625 655.523438 175.121094 L 657.683594 174.582031 C 657.882812 174.53125 658.019531 174.414062 658.097656 174.222656 L 658.84375 172.421875 C 658.921875 172.234375 658.90625 172.054688 658.804688 171.878906 L 657.65625 169.96875 C 657.585938 169.847656 657.558594 169.71875 657.574219 169.582031 C 657.589844 169.441406 657.648438 169.324219 657.746094 169.226562 L 659.839844 167.132812 C 659.9375 167.035156 660.058594 166.976562 660.195312 166.960938 C 660.335938 166.941406 660.464844 166.96875 660.582031 167.042969 L 662.496094 168.1875 C 662.667969 168.292969 662.851562 168.308594 663.039062 168.230469 L 664.839844 167.484375 C 665.027344 167.40625 665.148438 167.265625 665.195312 167.070312 L 665.738281 164.90625 C 665.769531 164.769531 665.84375 164.660156 665.953125 164.574219 C 666.0625 164.488281 666.1875 164.445312 666.324219 164.445312 L 669.285156 164.445312 C 669.421875 164.445312 669.546875 164.488281 669.65625 164.574219 C 669.769531 164.660156 669.839844 164.769531 669.875 164.90625 L 670.414062 167.070312 C 670.464844 167.265625 670.582031 167.40625 670.769531 167.484375 L 672.570312 168.230469 C 672.761719 168.308594 672.941406 168.292969 673.117188 168.1875 L 675.027344 167.042969 C 675.148438 166.96875 675.277344 166.941406 675.414062 166.960938 C 675.554688 166.976562 675.671875 167.035156 675.769531 167.132812 L 677.863281 169.226562 C 677.960938 169.324219 678.019531 169.441406 678.035156 169.582031 C 678.050781 169.71875 678.023438 169.847656 677.953125 169.964844 L 676.808594 171.878906 C 676.703125 172.054688 676.6875 172.234375 676.765625 172.421875 L 677.511719 174.226562 C 677.589844 174.414062 677.730469 174.53125 677.925781 174.582031 L 680.089844 175.121094 C 680.222656 175.15625 680.335938 175.226562 680.421875 175.335938 C 680.507812 175.445312 680.546875 175.570312 680.546875 175.710938 Z M 680.546875 178.667969" stroke-linecap="round" />
</g>
<g transform="matrix(2.33 0 0 2.33 527.76 410.49)"  >
<path style="stroke: none; stroke-width: 1; stroke-dasharray: none; stroke-linecap: butt; stroke-dashoffset: 0; stroke-linejoin: miter; stroke-miterlimit: 4; fill: rgb(255,255,255); fill-rule: nonzero; opacity: 1;" vector-effect="non-scaling-stroke"  transform=" translate(-667.8, -177.19)" d="M 667.804688 170.515625 C 667.367188 170.515625 666.933594 170.558594 666.503906 170.644531 C 666.074219 170.730469 665.65625 170.855469 665.25 171.023438 C 664.847656 171.191406 664.460938 171.394531 664.097656 171.640625 C 663.730469 171.882812 663.394531 172.160156 663.085938 172.46875 C 662.773438 172.78125 662.5 173.117188 662.253906 173.480469 C 662.011719 173.847656 661.804688 174.230469 661.636719 174.636719 C 661.46875 175.039062 661.34375 175.457031 661.257812 175.886719 C 661.171875 176.316406 661.128906 176.75 661.128906 177.191406 C 661.128906 177.628906 661.171875 178.0625 661.257812 178.492188 C 661.34375 178.921875 661.46875 179.339844 661.636719 179.746094 C 661.804688 180.148438 662.011719 180.535156 662.253906 180.898438 C 662.5 181.261719 662.773438 181.601562 663.085938 181.910156 C 663.394531 182.21875 663.730469 182.496094 664.097656 182.738281 C 664.460938 182.984375 664.847656 183.1875 665.25 183.355469 C 665.65625 183.523438 666.074219 183.652344 666.503906 183.738281 C 666.933594 183.824219 667.367188 183.863281 667.804688 183.863281 C 668.242188 183.863281 668.675781 183.824219 669.105469 183.738281 C 669.539062 183.652344 669.953125 183.523438 670.359375 183.355469 C 670.765625 183.1875 671.148438 182.984375 671.511719 182.738281 C 671.878906 182.496094 672.214844 182.21875 672.523438 181.910156 C 672.835938 181.601562 673.113281 181.261719 673.355469 180.898438 C 673.597656 180.535156 673.804688 180.148438 673.972656 179.746094 C 674.140625 179.339844 674.265625 178.921875 674.351562 178.492188 C 674.4375 178.0625 674.480469 177.628906 674.480469 177.191406 C 674.480469 176.75 674.4375 176.316406 674.351562 175.886719 C 674.265625 175.457031 674.136719 175.042969 673.96875 174.636719 C 673.800781 174.230469 673.597656 173.847656 673.351562 173.484375 C 673.109375 173.121094 672.832031 172.78125 672.523438 172.472656 C 672.214844 172.164062 671.875 171.886719 671.511719 171.640625 C 671.148438 171.398438 670.761719 171.191406 670.359375 171.023438 C 669.953125 170.855469 669.535156 170.730469 669.105469 170.644531 C 668.675781 170.558594 668.242188 170.515625 667.804688 170.515625 Z M 667.804688 182.652344 C 667.445312 182.652344 667.089844 182.617188 666.738281 182.546875 C 666.386719 182.476562 666.046875 182.371094 665.714844 182.234375 C 665.382812 182.097656 665.070312 181.929688 664.769531 181.730469 C 664.472656 181.53125 664.195312 181.304688 663.941406 181.050781 C 663.691406 180.796875 663.464844 180.523438 663.265625 180.222656 C 663.066406 179.925781 662.898438 179.613281 662.757812 179.28125 C 662.621094 178.949219 662.519531 178.605469 662.449219 178.253906 C 662.378906 177.902344 662.34375 177.546875 662.34375 177.191406 C 662.34375 176.832031 662.378906 176.476562 662.449219 176.125 C 662.519531 175.773438 662.621094 175.429688 662.757812 175.101562 C 662.898438 174.769531 663.066406 174.453125 663.265625 174.15625 C 663.464844 173.859375 663.691406 173.582031 663.941406 173.328125 C 664.195312 173.074219 664.472656 172.847656 664.769531 172.648438 C 665.070312 172.449219 665.382812 172.28125 665.714844 172.144531 C 666.046875 172.007812 666.386719 171.902344 666.738281 171.832031 C 667.089844 171.761719 667.445312 171.730469 667.804688 171.730469 C 668.164062 171.730469 668.519531 171.761719 668.871094 171.832031 C 669.222656 171.902344 669.5625 172.007812 669.894531 172.144531 C 670.226562 172.28125 670.542969 172.449219 670.839844 172.648438 C 671.136719 172.847656 671.414062 173.074219 671.667969 173.328125 C 671.921875 173.582031 672.148438 173.859375 672.347656 174.15625 C 672.546875 174.453125 672.714844 174.769531 672.851562 175.101562 C 672.988281 175.429688 673.089844 175.773438 673.160156 176.125 C 673.230469 176.476562 673.265625 176.832031 673.265625 177.191406 C 673.265625 177.546875 673.230469 177.902344 673.160156 178.253906 C 673.089844 178.605469 672.988281 178.949219 672.847656 179.277344 C 672.710938 179.609375 672.542969 179.925781 672.34375 180.222656 C 672.144531 180.519531 671.917969 180.796875 671.664062 181.050781 C 671.410156 181.304688 671.136719 181.53125 670.839844 181.730469 C 670.539062 181.929688 670.226562 182.097656 669.894531 182.234375 C 669.5625 182.371094 669.222656 182.476562 668.871094 182.546875 C 668.519531 182.617188 668.164062 182.652344 667.804688 182.652344 Z M 667.804688 182.652344" stroke-linecap="round" />
</g>
</svg>