<?xml version="1.0" encoding="UTF-8" standalone="no" ?>
<!DOCTYPE svg PUBLIC "-//W3C//DTD SVG 1.1//EN" "http://www.w3.org/Graphics/SVG/1.1/DTD/svg11.dtd">
<svg xmlns="http://www.w3.org/2000/svg" xmlns:xlink="http://www.w3.org/1999/xlink" version="1.1" width="1080" height="1080" viewBox="0 0 1080 1080" xml:space="preserve">
<desc>Created with Fabric.js 5.2.4</desc>
<defs>
</defs>
<g transform="matrix(1 0 0 1 540 540)" id="2da42d74-d5d9-4667-bada-f06e7d745797"  >
</g>
<g transform="matrix(1 0 0 1 540 540)" id="e6ea1391-08b2-4516-9b02-ab91ae9eb56a"  >
<rect style="stroke: none; stroke-width: 1; stroke-dasharray: none; stroke-linecap: butt; stroke-dashoffset: 0; stroke-linejoin: miter; stroke-miterlimit: 4; fill: rgb(255,255,255); fill-rule: nonzero; opacity: 1; visibility: hidden;" vector-effect="non-scaling-stroke"  x="-540" y="-540" rx="0" ry="0" width="1080" height="1080" />
</g>
<g transform="matrix(2.6 0 0 2.6 572.32 540)"  >
<path style="stroke: none; stroke-width: 1; stroke-dasharray: none; stroke-linecap: butt; stroke-dashoffset: 0; stroke-linejoin: miter; stroke-miterlimit: 4; fill: rgb(255,255,255); fill-rule: nonzero; opacity: 1;" vector-effect="non-scaling-stroke"  transform=" translate(-933.18, -448.24)" d="M 927.519531 486.617188 C 927.011719 486.511719 926.496094 486.433594 925.980469 486.390625 C 923.730469 486.28125 921.523438 485.921875 919.359375 485.3125 C 920.535156 483.554688 921.390625 481.65625 921.9375 479.617188 C 922.664062 477.042969 922.804688 474.4375 922.359375 471.800781 C 921.324219 466.351562 917.433594 462.746094 914.3125 460.136719 C 911.800781 458.035156 909.210938 456.027344 906.792969 453.855469 C 905.957031 453.167969 905.226562 452.382812 904.601562 451.496094 C 903.976562 450.613281 903.480469 449.664062 903.113281 448.644531 C 902.746094 447.628906 902.519531 446.578125 902.433594 445.5 C 902.347656 444.421875 902.40625 443.351562 902.609375 442.289062 C 902.667969 442.058594 902.683594 441.824219 902.660156 441.589844 C 902.640625 441.355469 902.578125 441.128906 902.480469 440.914062 C 902.382812 440.699219 902.25 440.507812 902.085938 440.339844 C 901.921875 440.167969 901.734375 440.03125 901.519531 439.925781 C 901.121094 439.6875 900.695312 439.601562 900.234375 439.664062 C 899.773438 439.730469 899.386719 439.929688 899.066406 440.261719 C 892.992188 445.566406 888.023438 451.691406 885.808594 459.609375 C 883.089844 469.398438 884.757812 478.363281 891.773438 485.902344 C 897.980469 492.558594 908.671875 494.4375 916.292969 489.035156 C 916.785156 488.800781 917.292969 488.757812 917.8125 488.902344 C 920.832031 489.484375 923.828125 490.160156 926.851562 490.703125 C 927.128906 490.78125 927.410156 490.792969 927.695312 490.742188 C 927.976562 490.695312 928.238281 490.585938 928.472656 490.421875 C 928.707031 490.257812 928.898438 490.050781 929.039062 489.800781 C 929.183594 489.550781 929.265625 489.28125 929.292969 488.996094 C 929.347656 488.71875 929.34375 488.441406 929.285156 488.164062 C 929.222656 487.890625 929.105469 487.636719 928.9375 487.410156 C 928.769531 487.183594 928.5625 487 928.3125 486.863281 C 928.066406 486.722656 927.800781 486.640625 927.519531 486.617188 Z M 917.394531 486.257812 C 917.246094 486.792969 916.933594 487.199219 916.457031 487.476562 C 915.964844 487.75 915.445312 487.820312 914.898438 487.683594 C 913.914062 487.386719 912.96875 486.992188 912.066406 486.503906 C 911.410156 486.109375 910.886719 485.808594 910.359375 485.488281 C 908.871094 484.648438 907.472656 483.683594 906.160156 482.589844 C 904.847656 481.496094 903.644531 480.292969 902.550781 478.980469 C 901.457031 477.667969 900.492188 476.269531 899.648438 474.78125 C 898.808594 473.292969 898.109375 471.742188 897.550781 470.128906 C 897.0625 468.648438 897.496094 467.507812 898.640625 467.089844 C 899.914062 466.628906 901.019531 467.222656 901.527344 468.742188 C 902.386719 471.289062 903.648438 473.621094 905.316406 475.726562 C 906.984375 477.835938 908.960938 479.605469 911.242188 481.027344 C 912.742188 482 914.355469 482.828125 916.023438 483.785156 C 916.519531 483.941406 916.90625 484.242188 917.183594 484.683594 C 917.480469 485.179688 917.550781 485.703125 917.394531 486.257812 Z M 962.453125 441.5625 C 962.636719 442.050781 962.851562 442.519531 963.09375 442.980469 C 964.21875 444.929688 965.105469 446.980469 965.761719 449.132812 C 963.652344 449.097656 961.589844 449.398438 959.582031 450.042969 C 957.023438 450.824219 954.753906 452.113281 952.777344 453.914062 C 948.753906 457.730469 947.824219 462.957031 947.316406 466.992188 C 946.910156 470.242188 946.621094 473.503906 946.097656 476.714844 C 945.972656 477.792969 945.707031 478.832031 945.300781 479.835938 C 944.894531 480.839844 944.363281 481.769531 943.703125 482.628906 C 943.046875 483.492188 942.289062 484.25 941.425781 484.902344 C 940.5625 485.558594 939.628906 486.089844 938.625 486.492188 C 938.402344 486.566406 938.195312 486.679688 938.011719 486.824219 C 937.824219 486.972656 937.667969 487.144531 937.542969 487.34375 C 937.414062 487.542969 937.324219 487.757812 937.269531 487.988281 C 937.214844 488.21875 937.203125 488.449219 937.226562 488.683594 C 937.246094 489.148438 937.40625 489.554688 937.707031 489.90625 C 938.007812 490.257812 938.386719 490.480469 938.839844 490.570312 C 946.589844 492.808594 954.4375 493.675781 962.292969 491.253906 C 971.996094 488.25 978.636719 482.003906 981.183594 472.019531 C 983.425781 463.195312 979.222656 453.191406 970.5625 449.707031 C 970.105469 449.417969 969.796875 449.015625 969.636719 448.5 C 968.496094 445.644531 967.441406 442.753906 966.265625 439.921875 C 966.179688 439.648438 966.039062 439.40625 965.84375 439.191406 C 965.648438 438.980469 965.417969 438.820312 965.152344 438.710938 C 964.886719 438.601562 964.609375 438.554688 964.320312 438.570312 C 964.035156 438.585938 963.765625 438.660156 963.511719 438.792969 C 963.246094 438.894531 963.015625 439.046875 962.8125 439.246094 C 962.613281 439.445312 962.464844 439.679688 962.363281 439.941406 C 962.261719 440.207031 962.21875 440.480469 962.234375 440.761719 C 962.25 441.046875 962.324219 441.3125 962.453125 441.5625 Z M 967.628906 450.277344 C 968.15625 450.113281 968.667969 450.15625 969.160156 450.40625 C 969.65625 450.671875 969.996094 451.074219 970.175781 451.605469 C 970.460938 452.59375 970.640625 453.597656 970.714844 454.625 C 970.738281 455.394531 970.769531 455.996094 970.785156 456.609375 C 970.882812 458.3125 970.828125 460.015625 970.617188 461.710938 C 970.40625 463.40625 970.042969 465.066406 969.53125 466.695312 C 969.019531 468.328125 968.367188 469.898438 967.570312 471.410156 C 966.773438 472.921875 965.847656 474.347656 964.792969 475.691406 C 963.808594 476.902344 962.613281 477.15625 961.648438 476.417969 C 961.386719 476.230469 961.179688 475.992188 961.023438 475.707031 C 960.871094 475.425781 960.785156 475.121094 960.769531 474.796875 C 960.75 474.476562 960.804688 474.164062 960.929688 473.867188 C 961.050781 473.570312 961.234375 473.3125 961.472656 473.09375 C 963.152344 470.996094 964.429688 468.671875 965.300781 466.128906 C 966.175781 463.585938 966.589844 460.96875 966.554688 458.28125 C 966.5625 456.492188 966.382812 454.6875 966.289062 452.765625 C 966.148438 452.261719 966.191406 451.773438 966.414062 451.300781 C 966.671875 450.789062 967.074219 450.445312 967.625 450.277344 Z M 905.941406 435.589844 C 906.28125 435.195312 906.59375 434.785156 906.886719 434.355469 C 908.066406 432.441406 909.449219 430.6875 911.035156 429.089844 C 912.003906 430.964844 913.25 432.632812 914.769531 434.097656 C 916.667969 435.976562 918.878906 437.363281 921.402344 438.25 C 926.671875 439.980469 931.710938 438.324219 935.503906 436.855469 C 938.558594 435.671875 941.566406 434.378906 944.640625 433.308594 C 945.648438 432.910156 946.691406 432.648438 947.765625 432.53125 C 948.84375 432.414062 949.914062 432.441406 950.984375 432.609375 C 952.050781 432.78125 953.082031 433.089844 954.066406 433.539062 C 955.050781 433.984375 955.960938 434.554688 956.792969 435.25 C 956.964844 435.410156 957.160156 435.539062 957.378906 435.632812 C 957.59375 435.726562 957.820312 435.78125 958.054688 435.800781 C 958.292969 435.816406 958.523438 435.796875 958.753906 435.734375 C 958.980469 435.671875 959.191406 435.574219 959.386719 435.441406 C 959.785156 435.203125 960.066406 434.871094 960.234375 434.4375 C 960.402344 434.007812 960.417969 433.570312 960.28125 433.128906 C 958.578125 425.242188 955.617188 417.921875 949.761719 412.152344 C 942.507812 405.042969 933.855469 402.164062 923.859375 404.652344 C 915.03125 406.855469 908.214844 415.308594 909.257812 424.589844 C 909.222656 425.128906 909.015625 425.59375 908.640625 425.980469 C 906.667969 428.339844 904.628906 430.636719 902.6875 433.019531 C 902.488281 433.222656 902.339844 433.460938 902.246094 433.734375 C 902.152344 434.003906 902.121094 434.285156 902.148438 434.570312 C 902.179688 434.855469 902.269531 435.121094 902.417969 435.367188 C 902.566406 435.613281 902.757812 435.816406 902.996094 435.976562 C 903.210938 436.160156 903.453125 436.292969 903.726562 436.375 C 903.996094 436.453125 904.273438 436.476562 904.554688 436.4375 C 904.835938 436.402344 905.09375 436.308594 905.335938 436.160156 C 905.578125 436.011719 905.777344 435.820312 905.9375 435.589844 Z M 911.152344 426.90625 C 910.753906 426.519531 910.546875 426.050781 910.535156 425.496094 C 910.53125 424.933594 910.722656 424.445312 911.105469 424.03125 C 911.84375 423.3125 912.648438 422.679688 913.515625 422.125 C 914.179688 421.742188 914.695312 421.425781 915.226562 421.121094 C 916.683594 420.226562 918.207031 419.46875 919.800781 418.851562 C 921.390625 418.230469 923.027344 417.761719 924.703125 417.4375 C 926.382812 417.113281 928.074219 416.945312 929.78125 416.929688 C 931.488281 416.914062 933.1875 417.050781 934.867188 417.34375 C 936.402344 417.632812 937.191406 418.566406 937 419.765625 C 936.792969 421.109375 935.734375 421.785156 934.15625 421.496094 C 931.511719 421.011719 928.863281 420.992188 926.210938 421.429688 C 923.558594 421.867188 921.054688 422.742188 918.707031 424.050781 C 917.125 424.890625 915.621094 425.902344 913.980469 426.902344 C 913.601562 427.261719 913.152344 427.453125 912.628906 427.484375 C 912.054688 427.5 911.5625 427.308594 911.152344 426.90625 Z M 911.152344 426.90625" stroke-linecap="round" />
</g>
</svg>